<svg xmlns="http://www.w3.org/2000/svg" viewBox="0 0 512 512" fill="white">
  <!-- Kettlebell icon -->
  <path d="M104 96c0-13.3 10.7-24 24-24h40V56c0-13.3 10.7-24 24-24s24 10.7 24 24v16h48V56c0-13.3 10.7-24 24-24s24 10.7 24 24v16h40c13.3 0 24 10.7 24 24v32c0 13.3-10.7 24-24 24H128c-13.3 0-24-10.7-24-24V96zM96 192h320c17.7 0 32 14.3 32 32V448c0 35.3-28.7 64-64 64H128c-35.3 0-64-28.7-64-64V224c0-17.7 14.3-32 32-32zm64 96c-8.8 0-16 7.2-16 16v64c0 8.8 7.2 16 16 16H352c8.8 0 16-7.2 16-16V304c0-8.8-7.2-16-16-16H160z"/>
</svg>
